<?xml version="1.0" standalone="no"?>
<!DOCTYPE svg PUBLIC "-//W3C//DTD SVG 20010904//EN"
 "http://www.w3.org/TR/2001/REC-SVG-20010904/DTD/svg10.dtd">
<svg version="1.0" xmlns="http://www.w3.org/2000/svg"
 width="875.000000pt" height="875.000000pt" viewBox="0 0 875.000000 875.000000"
 preserveAspectRatio="xMidYMid meet">
<metadata>
Created by potrace 1.11, written by Peter Selinger 2001-2013
</metadata>
<g transform="translate(0.000000,875.000000) scale(0.100000,-0.100000)"
fill="#000000" stroke="none">
<path d="M7570 8027 c-30 -7 -86 -28 -125 -47 -67 -32 -165 -129 -2223 -2189
-1184 -1186 -2204 -2208 -2266 -2271 -120 -124 -170 -205 -197 -320 -25 -110
-10 -254 36 -352 12 -27 21 -48 20 -48 -4 0 -138 60 -158 71 -10 6 -54 15 -98
21 -182 27 -320 -45 -437 -230 -83 -130 -258 -396 -295 -447 -64 -88 -71 -97
-151 -199 -98 -124 -280 -307 -362 -363 -243 -165 -410 -122 -637 165 -87 110
-189 281 -251 422 -16 36 -31 67 -34 70 -7 7 5 -136 17 -197 57 -293 157 -502
320 -664 179 -178 377 -248 683 -243 87 1 251 12 287 19 9 1 37 6 64 9 74 10
314 73 427 111 421 145 877 457 980 671 56 117 47 260 -25 407 -32 64 -32 68
-12 61 12 -3 27 -10 32 -14 6 -4 42 -17 80 -29 55 -16 91 -20 165 -17 52 2
106 6 119 9 68 17 125 42 178 76 65 42 4465 4440 4535 4532 54 72 74 114 97
201 46 171 11 349 -95 488 -51 67 -163 175 -224 217 -89 59 -174 86 -290 89
-61 2 -128 -2 -160 -9z m229 -551 c53 -54 62 -68 59 -94 -2 -26 -276 -305
-1746 -1778 l-1743 -1747 -95 94 -94 93 1747 1748 c1559 1559 1751 1748 1778
1748 24 0 44 -13 94 -64z m-3874 -3886 l89 -89 -290 -291 c-339 -340 -317
-327 -414 -230 -33 34 -61 64 -61 68 -10 51 -7 55 280 343 157 159 291 288
296 289 6 0 51 -40 100 -90z"/>
</g>
</svg>
